<?xml version="1.0" encoding="UTF-8"?> <!-- Generator: Adobe Illustrator 23.0.3, SVG Export Plug-In . SVG Version: 6.00 Build 0) --> <svg xmlns="http://www.w3.org/2000/svg" xmlns:xlink="http://www.w3.org/1999/xlink" id="Layer_1" x="0px" y="0px" viewBox="0 0 120 120" style="enable-background:new 0 0 120 120;" xml:space="preserve"> <style type="text/css"> .st0{fill:#F1A5AA;} </style> <path class="st0" d="M57.9,85.7c-0.9-0.6-1.8-2.2-1.8-3.1c-0.3,0.4-0.3,2.7,1.2,3.6s3.1,0.8,4.4,0.1C61.3,86.3,59.3,86.6,57.9,85.7z M50.6,52.5c5,3,10.4,2.5,14.7,0.4c-1,0-7.6,0.8-12.4-2.1c-3-1.9-6-7.2-6.1-10.4C45.9,41.8,45.7,49.5,50.6,52.5z M60,0 C26.9,0,0,26.9,0,60s26.9,60,60,60s60-26.9,60-60S93.1,0,60,0z M44.5,31.7c1.2-2.9,1.8-3.9,7.4-12.6c0.9-1.4,1.8-2.8,2.5-4.1v-0.1 c0.3-0.5,0.6-0.9,0.8-1.3c2.2-3.7,3.7-6.5,4.2-8.1l0.6-1l0,0l0,0l0.4,1.1c0.6,1.6,2.1,4.4,4.2,8.1c0.3,0.4,0.5,0.9,0.8,1.3v0.1 c0.8,1.3,1.6,2.6,2.5,4.1c5.6,8.7,6.2,9.8,7.4,12.6c2.8,6.5,2.9,11.7,0.3,17c-2,4.1-6.5,7.7-11,8.8c-1,0.2-2.8,0.4-4.6,0.4 s-3.6-0.2-4.7-0.5c-4.5-1.1-8.9-4.7-11-8.8C41.7,43.4,41.7,38.3,44.5,31.7z M39.1,102.7c-14.7,0-26.7-6.3-26.7-14.1 s12-14.1,26.7-14.1c1,0,2,0,3,0.1c-13.3,0.8-23.7,6.7-23.7,14c0,7.2,10.4,13.2,23.7,14C41.1,102.7,40.1,102.7,39.1,102.7z M53.4,96.3c-0.7,0-1.4,0.1-2.1,0.1C41.2,96.4,33,92,33,86.7S41.2,77,51.4,77c0.7,0,1.4,0,2.1,0.1c-9.2,0.5-16.3,4.6-16.3,9.6 C37.1,91.7,44.3,95.8,53.4,96.3z M64.7,85.1c-0.6,1.2-1.9,2.3-3.3,2.6c-0.3,0.1-0.9,0.1-1.4,0.1s-1.1-0.1-1.4-0.1 c-1.3-0.3-2.7-1.4-3.3-2.6c-0.8-1.6-0.8-3.1,0.1-5.1c0.4-0.9,0.6-1.2,2.2-3.8c0.3-0.4,0.5-0.8,0.8-1.2l0,0c0.1-0.1,0.2-0.3,0.3-0.4 c0.7-1.1,1.1-2,1.3-2.4l0.1-0.3l0,0l0,0l0.1,0.3c0.2,0.5,0.6,1.3,1.3,2.4c0.1,0.1,0.2,0.3,0.3,0.4l0,0c0.2,0.4,0.5,0.8,0.8,1.2 c1.7,2.6,1.9,2.9,2.2,3.8C65.5,82,65.5,83.5,64.7,85.1z M66.6,96.3c9.2-0.5,16.3-4.6,16.3-9.6s-7.1-9.1-16.3-9.6 c0.7,0,1.4-0.1,2.1-0.1C78.8,77,87,81.4,87,86.7c0,5.3-8.2,9.7-18.4,9.7C67.9,96.4,67.3,96.3,66.6,96.3z M80.9,102.7c-1,0-2,0-3-0.1 c13.3-0.8,23.7-6.7,23.7-14c0-7.2-10.4-13.2-23.7-14c1-0.1,2-0.1,3-0.1c14.7,0,26.7,6.3,26.7,14.1C107.6,96.4,95.7,102.7,80.9,102.7 z"></path> </svg> 