<?xml version="1.0" encoding="UTF-8"?> <!-- Generator: Adobe Illustrator 23.0.3, SVG Export Plug-In . SVG Version: 6.00 Build 0) --> <svg xmlns="http://www.w3.org/2000/svg" xmlns:xlink="http://www.w3.org/1999/xlink" id="Layer_1" x="0px" y="0px" viewBox="0 0 120 120" style="enable-background:new 0 0 120 120;" xml:space="preserve"> <style type="text/css"> .st0{fill:#af9b7a;} </style> <path class="st0" d="M61.7,93.1l-0.4-16.2h-1.8v2L59,93.1l-2.5,23.6c0,0,0,0.5-0.1,1.3c1.2,0.1,2.3,0.1,3.5,0.1c1.5,0,3-0.1,4.5-0.2 v-2.2L61.7,93.1z M38.9,1.9C16.2,10.5,0,32.4,0,58.1c0,23.3,13.3,43.5,32.7,53.4l-6.6-26.1c0,0-4.5-12.1,0.4-31.3 C31.4,35,38.3,30.3,40.3,23.9S39.8,5.2,39.8,5.2L38.9,1.9z M81.5,2.1c-0.5,2-0.9,3.6-1.1,4.1c-0.4,2.2-0.7,12.1,0.2,17.2 c1,5.2,11.3,15.8,13.2,28.8c3.8,12.6,1,26.6-0.4,35.7c-0.8,5-3.5,14.9-5.7,23.4c19.2-10,32.2-30.1,32.2-53.2 C120,32.5,104,10.7,81.5,2.1z M54.7,64.6c2.6,3,4.1,6.7,4.2,9.8c0.3-0.4,0.5-0.9,0.7-1.4c-1.5-3.8-1.7-8.7-0.2-12.8 c0.1-0.2,0.2-0.4,0.2-0.6c-1.2-2.8-3.4-6-5.6-7.4c-1,3.7-1.2,7.4-0.7,10.9C53.8,63.5,54.3,64,54.7,64.6z M61.9,74.3 c0-3.1,1.6-6.7,4.2-9.8c0.5-0.5,1-1,1.5-1.5c0.5-3.5,0.3-7.2-0.7-10.9c-2.5,1.6-5,5.4-6.1,8.4C59.1,65,59.7,70.8,61.9,74.3z M50.9,70.9c2.8,0.7,5.2,2.3,6.7,4.2c0.3-2.9-1.2-6.6-3.8-9.7c-2.4-2.8-5.2-4.4-7.8-4.5c0.4,2.3,1.6,5.3,2.8,7.2 C49.2,69.1,50,70,50.9,70.9z M63.2,75.1c1.5-1.9,3.9-3.5,6.7-4.2c0.9-0.9,1.6-1.9,2.2-2.8c1.2-1.9,2.3-4.9,2.8-7.2 c-2.6,0.1-5.5,1.7-7.8,4.5C64.4,68.5,63,72.3,63.2,75.1z M49.2,71.9c-2-0.3-3.7-0.1-4.8,0.5c0.2,0.2,0.5,0.5,0.8,0.8 c1.6,1.3,4.5,2.6,6.7,3c1.4,0.2,3.3,0.1,4.7-0.2C55.1,74,52.3,72.4,49.2,71.9z M71.6,71.9c-3.1,0.5-5.9,2.1-7.4,4.1 c1.4,0.3,3.3,0.4,4.7,0.2c2.2-0.3,5.1-1.6,6.7-3c0.3-0.3,0.6-0.5,0.8-0.8C75.3,71.8,73.5,71.6,71.6,71.9z M60.6,27.5 c-0.1-0.1-0.2-0.1-0.3-0.1c-0.1,0-0.2,0-0.3,0.1c-1.7,1.8-1.7,3.7,0,5.6c0.1,0.1,0.2,0.1,0.3,0.1c0.1,0,0.2,0,0.3-0.1 C62.3,31.3,62.3,29.4,60.6,27.5z M60.3,32.3c-1-1.4-1-2.7,0-4C61.3,29.7,61.4,31,60.3,32.3z"></path> </svg> 