<?xml version="1.0" encoding="UTF-8"?> <!-- Generator: Adobe Illustrator 23.0.3, SVG Export Plug-In . SVG Version: 6.00 Build 0) --> <svg xmlns="http://www.w3.org/2000/svg" xmlns:xlink="http://www.w3.org/1999/xlink" id="Layer_1" x="0px" y="0px" viewBox="0 0 120 120" style="enable-background:new 0 0 120 120;" xml:space="preserve"> <style type="text/css"> .st0{fill:#F1A5AA;} </style> <path class="st0" d="M59.6,1c0,0-0.1,2,0,1.9C58.1,7,54.1,15.4,52.1,20c0,0-0.8,13.6,7.8,13.6S67.7,20,67.7,20 c-2.1-4.7-6-13-7.5-17.1c0.1,0.1,0-1.9,0-1.9V0h-0.1c-0.1,0-0.3,0-0.4,0L59.6,1L59.6,1z M63.9,24.4c1.5,2.2,0.8,5.2-1.4,6.7 c-2.2,1.5-5.2,0.8-6.7-1.4S55,24.5,57.2,23S62.4,22.2,63.9,24.4z M61.1,0c0.3,0.9,0.6,1.8,0.9,2.4c3.2,5.2,8.2,10.1,10.3,16.4 c0.1,9-1.4,14.5-6.3,25.1c0,1.7,1.5,7.2,2.4,11c0.5,2.2,0.6,4.5,0.2,6.7C67.5,67.7,64.9,80,64.9,80v0.1c0.1,0.5,0.2,5.1-0.1,8.2 c-0.3,2.4-2.6,9.8-4.1,13.5V63.1c0-1.7-0.8-1.8-0.8-1.8S59,61.6,59,63.1v38.7c-1.5-3.7-3.8-11.1-4.1-13.5c-0.3-3.1-0.2-7.7-0.1-8.2 V80c0,0-2.6-12.3-3.8-18.5c-0.4-2.2-0.3-4.5,0.2-6.7c0.9-3.7,2.4-9.3,2.4-11c-4.9-10.5-6.4-16-6.3-25.1c2.1-6.3,7.1-11.2,10.3-16.4 c0.4-0.5,0.7-1.4,1-2.3C26.1,0.8,0,27.3,0,60c0,33.1,26.9,60,60,60s60-26.9,60-60C120,27.2,93.7,0.6,61.1,0z M11.2,77.7 c4.3,1.1,8.4,2.6,12.3,4.5c4.9,13.6,15.3,23.8,31.6,31c0.6,1.1,1.2,2.2,1.8,3.3C35.9,110.1,19.1,98.8,11.2,77.7z M23.3,78.7 c1.6,0.6,3.2,1.3,4.7,2c4.7,10.8,13.3,19.6,26.1,26.6c0.9,1.8,1.7,3.6,2.5,5.5C38.5,105.2,27.8,94.3,23.3,78.7z M26.1,71.6 c14.7,6.7,25.1,18.9,31,36.3C39.3,98.9,29.5,87.3,26.1,71.6z M92.9,71.6c-3.4,15.8-13.3,27.4-31,36.3C67.8,90.5,78.2,78.3,92.9,71.6 z M95.6,78.7c-4.5,15.5-15.1,26.4-33.4,34.1c0.8-1.9,1.6-3.7,2.5-5.5c12.8-7,21.5-15.8,26.1-26.6C92.4,80,94,79.4,95.6,78.7z M62,116.5c0.6-1.1,1.2-2.2,1.8-3.3c16.3-7.2,26.7-17.4,31.6-31c3.9-1.9,8-3.4,12.3-4.5C99.8,98.8,83.1,110.1,62,116.5z"></path> </svg> 